<?xml version="1.0" encoding="UTF-8" standalone="no"?><!DOCTYPE svg PUBLIC "-//W3C//DTD SVG 1.1//EN" "http://www.w3.org/Graphics/SVG/1.1/DTD/svg11.dtd"><svg width="567px" height="150px" version="1.1" xmlns="http://www.w3.org/2000/svg" xmlns:xlink="http://www.w3.org/1999/xlink" xml:space="preserve" xmlns:serif="http://www.serif.com/" style="fill-rule:evenodd;clip-rule:evenodd;stroke-linejoin:round;stroke-miterlimit:2;"><g id="Artboard1" transform="matrix(1,0,0,1,-112.973977,-240.536556)"><rect x="112.974" y="240.537" width="566.052" height="149.814" style="fill:none;"/><clipPath id="_clip1"><rect x="112.974" y="240.537" width="566.052" height="149.814"/></clipPath><g clip-path="url(#_clip1)"><g transform="matrix(0.24,0,0,0.24,0.973977,0.536556)"><g transform="matrix(4.166667,0,0,4.166667,-61.53347,-509.976939)"><path d="M148.274,441.327C148.26,436.585 148.116,429.716 147.843,420.722C147.555,411.229 147.411,404.104 147.411,399.347C147.411,398.445 148.028,397.994 149.263,397.994C150.497,397.994 152.338,398.056 154.787,398.179C157.235,398.302 159.055,398.363 160.249,398.363C161.606,398.363 163.623,398.291 166.297,398.148C168.972,398.004 170.988,397.933 172.346,397.933C172.963,397.933 173.251,398.322 173.21,399.101L173.148,399.901C172.654,407.61 172.099,419.194 171.481,434.654L171.456,441.327L148.274,441.327Z" style="fill:rgb(255,108,0);"/></g><g transform="matrix(4.166667,0,0,4.166667,-61.53347,-405.156098)"><path d="M210.383,416.17C211.662,412.686 213.497,409.6 215.887,406.913C221.236,400.926 228.56,397.933 237.859,397.933C244.319,397.933 249.421,400.188 253.165,404.699C253.33,404.904 253.474,405.006 253.597,405.006C253.968,405.006 254.389,404.012 254.863,402.023C255.336,400.034 255.902,399.04 256.56,399.04C258.082,399.04 260.983,399.471 265.262,400.332C269.336,401.152 272.257,401.849 274.026,402.423C274.643,402.669 274.952,402.997 274.952,403.407C274.952,403.571 274.89,404.002 274.767,404.699C274.108,408.415 273.614,412.239 273.284,416.17L210.383,416.17Z" style="fill:rgb(255,108,0);"/></g><g transform="matrix(4.166667,0,0,4.166667,-61.53347,-416.876932)"><path d="M279.16,416.316L279.16,415.547C279.16,414.071 279.201,411.846 279.283,408.873C279.365,405.9 279.407,403.676 279.407,402.199C279.407,401.133 280.085,400.6 281.443,400.6C283.542,400.6 286.72,400.662 290.979,400.785C295.237,400.908 298.416,400.969 300.514,400.969C301.378,400.969 301.81,401.605 301.81,402.876C301.81,404.024 301.749,405.757 301.625,408.073C301.502,410.39 301.44,412.123 301.44,413.271C301.44,414.36 301.444,415.374 301.451,416.316L279.16,416.316Z" style="fill:rgb(255,108,0);"/></g><g transform="matrix(4.166667,0,0,4.166667,-61.53347,-416.876932)"><path d="M319.524,416.316C319.565,415.044 319.585,413.742 319.585,412.41C319.585,411.303 319.483,409.621 319.277,407.366C319.071,405.111 318.968,403.409 318.968,402.261C318.968,401.482 319.4,401.092 320.264,401.092C322.363,401.092 325.5,401.01 329.676,400.846C333.853,400.682 336.99,400.6 339.088,400.6C340.158,400.6 340.878,401.133 341.249,402.199C341.825,404.086 342.113,408.453 342.113,415.301C342.113,415.645 342.112,415.983 342.111,416.316L319.524,416.316Z" style="fill:rgb(255,108,0);"/></g><g transform="matrix(4.166667,0,0,4.166667,-61.53347,-411.051931)"><path d="M348.876,417.585C350.255,413.727 352.32,410.292 355.074,407.282C360.752,401.05 368.281,397.933 377.663,397.933C385.563,397.933 392.269,400.804 397.783,406.544C400.969,409.862 403.234,413.542 404.579,417.585L382.585,417.585C382.328,417.238 382.045,416.9 381.736,416.57C379.926,414.643 377.765,413.679 375.256,413.679C372.663,413.679 370.524,414.766 368.837,416.939C368.672,417.151 368.516,417.366 368.369,417.585L348.876,417.585Z" style="fill:rgb(255,108,0);"/></g><g transform="matrix(4.166667,0,0,4.166667,-61.53347,-413.510265)"><path d="M442.86,408.051C442.88,408.055 442.9,408.057 442.92,408.057C442.896,408.057 442.876,408.055 442.86,408.051Z" style="fill:rgb(255,108,0);"/></g><g transform="matrix(4.166667,0,0,4.166667,-61.53347,-403.618597)"><path d="M412.844,415.801C412.412,411.085 411.686,406.934 410.668,403.346C410.586,402.977 410.545,402.669 410.545,402.423C410.545,401.808 410.853,401.398 411.47,401.193C413.733,400.947 417.046,400.496 421.407,399.84C427.908,398.568 431.261,397.933 431.467,397.933C432.208,397.933 432.681,399.225 432.887,401.808C433.085,404.294 433.435,405.584 433.938,405.677C433.954,405.681 433.974,405.683 433.998,405.683C433.977,405.683 433.958,405.681 433.938,405.677C433.565,405.592 435.272,404.518 439.059,402.454C443.009,400.301 446.815,399.225 450.477,399.225C452.781,399.225 453.933,399.717 453.933,400.701C453.933,401.89 453.809,403.571 453.562,405.745C453.316,408.082 453.172,409.763 453.13,410.788C453.13,411.977 453.151,413.556 453.192,415.524C453.195,415.618 453.198,415.71 453.201,415.801L412.844,415.801Z" style="fill:rgb(255,108,0);"/></g><g transform="matrix(4.166667,0,0,4.166667,-61.53347,-426.039433)"><path d="M479.341,397.933C478.147,399.247 477.55,400.836 477.55,402.699C477.55,405.2 479.031,408.276 481.994,411.925C485.7,416.579 488.154,419.664 489.356,421.182L460.928,421.182C458.356,418.199 456.922,416.487 456.628,416.046C453.789,411.782 452.369,407.066 452.369,401.899C452.369,400.535 452.484,399.213 452.714,397.933L479.341,397.933Z" style="fill:rgb(255,108,0);"/></g><g transform="matrix(4.166667,0,0,4.166667,-61.53347,-426.039433)"><path d="M520.439,397.933C520.343,402.802 520.295,406.912 520.295,410.264C520.295,411.085 520.501,411.495 520.912,411.495C520.995,411.495 522.044,410.777 524.06,409.342C526.446,407.66 528.73,406.328 530.911,405.344C534.161,403.908 537.309,403.191 540.354,403.191C545.62,403.191 550.023,404.565 553.561,407.312C557.388,410.264 559.301,414.303 559.301,419.429L559.296,421.182L498.716,421.182C498.656,412.781 498.525,405.513 498.323,399.377C498.304,398.896 498.285,398.414 498.267,397.933L520.439,397.933Z" style="fill:rgb(255,108,0);"/></g><g transform="matrix(4.166667,0,0,4.166667,-61.53347,-394.647763)"><path d="M565.015,413.648C564.79,408.561 564.434,404.163 563.946,400.455C563.864,399.798 563.823,399.368 563.823,399.163C563.823,398.343 564.378,397.933 565.489,397.933C566.641,397.933 568.4,398.056 570.766,398.302C573.132,398.548 574.912,398.671 576.105,398.671C577.298,398.671 579.088,398.568 581.474,398.363C583.861,398.158 585.651,398.056 586.844,398.056C587.831,398.056 588.325,398.466 588.325,399.286C588.325,399.45 588.284,399.839 588.202,400.455C587.741,404.523 587.398,408.921 587.171,413.648L565.015,413.648Z" style="fill:rgb(255,108,0);"/></g><g transform="matrix(-0.035708,-4.166513,-4.166513,0.035708,4112.338389,3623.547004)"><path d="M577.958,411.166C576.069,413.196 575.143,416.295 575.178,420.463C575.208,423.92 576.134,426.771 577.958,429.019C578.008,429.081 578.06,429.144 578.112,429.204L577.958,411.166Z" style="fill:rgb(255,108,0);"/></g><g transform="matrix(4.166667,0,0,4.166667,-61.53347,-426.039433)"><path d="M619.814,397.933C619.639,399.114 619.551,400.477 619.551,402.022C619.551,403.375 619.654,404.647 619.86,405.836C621.012,405.836 622.802,405.795 625.23,405.713C627.657,405.631 629.488,405.59 630.722,405.59C631.957,405.59 632.574,406.041 632.574,406.943C632.574,408.87 632.595,411.771 632.636,415.646C632.659,417.79 632.675,419.635 632.685,421.182L591.24,421.182C591.064,418.027 590.976,414.101 590.976,409.403C590.976,407.886 591.757,406.963 593.321,406.635C594.72,406.512 596.139,406.41 597.58,406.328C597.374,403.047 597.271,400.484 597.271,398.639C597.271,398.402 597.273,398.166 597.276,397.933L619.814,397.933Z" style="fill:rgb(255,108,0);"/></g><g transform="matrix(4.166667,0,0,4.166667,-61.53347,-426.039433)"><path d="M662.271,397.933C662.122,400.101 662.047,401.813 662.047,403.068C662.047,405.077 662.644,406.082 663.837,406.082C665.277,406.082 667.458,406.02 670.379,405.897C673.301,405.774 675.502,405.713 676.983,405.713C677.888,405.713 678.341,406.02 678.341,406.635C678.341,407.578 678.238,408.993 678.033,410.879C677.827,412.766 677.724,414.18 677.724,415.124C677.724,416.108 677.744,417.543 677.786,419.429C677.799,420.065 677.811,420.649 677.82,421.182L634.519,421.182C634.543,420.771 634.575,420.309 634.613,419.798C634.716,418.445 634.768,417.44 634.768,416.784C634.768,415.923 634.716,414.611 634.613,412.848C634.511,411.085 634.459,409.772 634.459,408.911C634.459,408.091 635.776,407.64 638.409,407.558C639.89,407.517 640.693,407.107 640.816,406.328C641.063,404.77 641.145,402.309 641.063,398.947C641.052,398.597 641.042,398.259 641.031,397.933L662.271,397.933Z" style="fill:rgb(255,108,0);"/></g><g transform="matrix(4.166667,0,0,4.166667,-61.53347,-287.397755)"><path d="M601.974,396.599L601.974,395.67C601.974,394.481 601.151,393.886 599.505,393.886C599.217,393.886 598.754,393.906 598.116,393.948C597.478,393.989 597.016,394.009 596.728,394.009C595.575,394.009 594.979,393.681 594.938,393.025C594.823,391.919 594.726,390.659 594.647,389.242L636.092,389.242C636.1,390.492 636.104,391.548 636.104,392.41C636.104,393.394 635.569,393.886 634.499,393.886C630.056,393.886 626.558,393.763 624.007,393.517C624.044,394.436 624.081,395.463 624.118,396.599L601.974,396.599Z" style="fill:rgb(255,108,0);"/></g><g transform="matrix(1.311358,3.954929,3.954929,-1.311358,-787.09622,695.355791)"><path d="M293.806,383.843C291.978,384.381 289.64,385.121 286.79,386.06L293.806,407.219C297.073,406.162 299.425,405.463 300.86,405.117L293.806,383.843Z" style="fill:rgb(255,108,0);"/></g><g transform="matrix(1.264988,3.970004,3.970004,-1.264988,-662.936881,513.193559)"><path d="M333.973,383.472C331.833,384.417 329.548,385.321 327.116,386.184L333.973,407.705C336.729,406.818 339.053,406.033 340.944,405.348L333.973,383.472Z" style="fill:rgb(255,108,0);"/></g><g transform="matrix(4.166667,0,0,4.166667,-61.53347,-287.397755)"><path d="M644.955,396.599C644.961,396.089 644.963,395.616 644.963,395.178C644.963,393.373 643.914,392.471 641.816,392.471L641.013,392.471C640.643,392.512 640.376,392.533 640.211,392.533C638.647,392.533 637.866,391.979 637.866,390.872C637.866,390.464 637.886,389.92 637.925,389.242L681.227,389.242C681.245,390.291 681.254,391.142 681.254,391.795C681.254,392.656 680.657,393.086 679.464,393.086C678.641,393.086 677.263,393.056 675.329,392.994C673.395,392.933 672.017,392.902 671.194,392.902L666.565,392.902C665.948,392.902 665.639,393.804 665.639,395.608L665.639,396.599L644.955,396.599Z" style="fill:rgb(255,108,0);"/></g><g transform="matrix(4.166667,0,0,4.166667,-61.53347,-287.397755)"><path d="M470.282,396.599C469.658,395.565 468.875,394.497 467.934,393.394C466.555,391.81 465.355,390.426 464.335,389.242L492.763,389.242C493.255,389.864 493.537,390.223 493.609,390.318C494.968,392.416 496.011,394.51 496.737,396.599L470.282,396.599Z" style="fill:rgb(255,108,0);"/></g><g transform="matrix(1.325179,3.950317,3.950317,-1.325179,32.946537,-418.746565)"><path d="M579.535,381.462C577.06,382.241 574.711,382.949 572.489,383.587L579.535,404.594C581.746,403.733 584.044,402.873 586.43,402.015L579.535,381.462Z" style="fill:rgb(255,108,0);"/></g><g transform="matrix(4.166667,0,0,4.166667,-61.53347,-287.397755)"><path d="M211.991,396.599C212.352,393.976 212.952,391.523 213.789,389.242L276.691,389.242C276.489,391.654 276.349,394.106 276.272,396.599L255.37,396.599C254.823,395.288 254.041,394.107 253.023,393.056C250.822,390.78 247.952,389.642 244.413,389.642C240.875,389.642 238.015,390.77 235.835,393.025C234.817,394.078 234.036,395.269 233.493,396.599L211.991,396.599Z" style="fill:rgb(255,108,0);"/></g><g transform="matrix(4.166667,0,0,4.166667,-61.53347,-287.397755)"><path d="M502.157,396.599C502.151,394.057 502.14,391.605 502.123,389.242L562.703,389.242L562.681,396.599L540.7,396.599C540.379,392.453 537.943,390.38 533.391,390.38C531.746,390.38 529.812,391.036 527.59,392.348C525.287,393.71 524.077,395.127 523.958,396.599L502.157,396.599Z" style="fill:rgb(255,108,0);"/></g><g transform="matrix(4.166667,0,0,4.166667,-61.53347,-287.397755)"><path d="M416.675,396.599C416.604,394.01 416.463,391.558 416.251,389.242L456.608,389.242C456.684,391.507 456.722,393.014 456.722,393.763C456.722,395.362 455.838,396.162 454.068,396.162C453.286,396.162 452.145,396.111 450.643,396.008C449.141,395.906 448.02,395.854 447.279,395.854C444.949,395.854 443.127,396.102 441.812,396.599L416.675,396.599Z" style="fill:rgb(255,108,0);"/></g><g transform="matrix(4.166667,0,0,4.166667,-61.53347,-287.397755)"><path d="M380.814,396.599C382.35,396.408 384.019,396.181 385.822,395.916C387.179,395.711 387.858,395.383 387.858,394.932C387.858,392.824 387.236,390.927 385.991,389.242L407.986,389.242C408.762,391.574 409.231,394.026 409.394,396.599L380.814,396.599Z" style="fill:rgb(255,108,0);"/></g><g transform="matrix(4.166667,0,0,4.166667,-61.53347,-287.397755)"><path d="M350.55,396.599C350.883,393.996 351.461,391.543 352.283,389.242L371.776,389.242C370.524,391.106 369.898,393.248 369.898,395.67C369.898,396.042 369.963,396.352 370.093,396.599L350.55,396.599Z" style="fill:rgb(255,108,0);"/></g><g transform="matrix(4.166667,0,0,4.166667,-61.53347,-287.397755)"><path d="M151.646,396.599C151.67,394.032 151.682,391.836 151.682,390.011L151.681,389.242L174.863,389.242L174.835,396.599L151.646,396.599Z" style="fill:rgb(255,108,0);"/></g><g transform="matrix(4.166667,0,0,4.166667,-61.53347,-253.693585)"><path d="M370.093,388.51L380.814,388.51C376.879,388.998 373.816,389.242 371.626,389.242C370.861,389.242 370.351,388.998 370.093,388.51Z" style="fill:rgb(255,108,0);"/></g><g transform="matrix(4.166667,0,0,4.166667,-61.53347,-89.460239)"><path d="M660.286,350.872L660.286,354.249C660.327,356.217 660.347,357.673 660.347,358.616C660.347,362.06 660.738,364.439 661.52,365.751C662.631,367.514 664.812,368.396 668.062,368.396C669.091,368.396 670.562,368.16 672.475,367.689C674.388,367.217 675.736,366.981 676.518,366.981C677.382,366.981 677.814,367.432 677.814,368.334C677.814,369.565 677.66,371.43 677.351,373.932C677.042,376.433 676.888,378.268 676.888,379.437C676.888,380.605 676.765,381.354 676.518,381.682C676.271,382.01 675.592,382.481 674.481,383.097C669.173,386.008 663.289,387.464 656.829,387.464C644.938,387.464 638.993,382.933 638.993,373.87C638.993,371.164 639.096,367.094 639.301,361.661C639.474,357.107 639.574,353.51 639.602,350.872L660.286,350.872Z" style="fill:rgb(255,108,0);"/></g><g transform="matrix(4.166667,0,0,4.166667,-61.53347,-81.122738)"><path d="M458.428,387.464C457.367,386.935 455.377,384.085 452.459,378.912C449.208,373.151 447.583,369.634 447.583,368.363C447.583,367.912 447.892,367.625 448.509,367.502C454.475,366.149 458.425,365.001 460.359,364.058C464.638,361.925 466.778,358.768 466.778,354.585C466.778,352.816 466.161,350.911 464.929,348.871L491.384,348.871C492.22,351.274 492.638,353.67 492.638,356.061C492.638,364.386 489.12,371.521 482.084,377.467C475.953,382.681 468.502,386.013 459.732,387.464L458.428,387.464Z" style="fill:rgb(255,108,0);"/></g><g transform="matrix(4.166667,0,0,4.166667,-61.53347,-92.022739)"><path d="M518.605,351.487C518.598,351.567 518.595,351.647 518.595,351.727L518.595,366.92C518.595,368.888 518.636,371.851 518.719,375.808C518.801,379.765 518.842,382.727 518.842,384.696C518.842,386.213 518.204,387.054 516.929,387.218C515.653,387.382 512.074,387.464 506.19,387.464C502.816,387.464 500.388,387.3 498.907,386.972C497.426,386.644 496.685,385.926 496.685,384.819C496.685,381.579 496.706,376.71 496.747,370.21C496.788,363.711 496.808,358.841 496.808,355.602C496.808,354.205 496.807,352.834 496.804,351.487L518.605,351.487Z" style="fill:rgb(255,108,0);"/></g><g transform="matrix(4.166667,0,0,4.166667,-61.53347,-88.181072)"><path d="M270.918,350.565C270.869,352.126 270.845,353.702 270.845,355.295C270.845,358.452 271.03,363.148 271.401,369.381C271.771,375.614 271.956,380.288 271.956,383.405C271.956,385.045 271.236,385.927 269.796,386.05C264.694,386.419 258.851,386.603 252.268,386.603C251.486,386.603 250.961,385.424 250.694,383.066C250.427,380.709 250.108,379.509 249.737,379.468C249.408,379.632 248.976,379.981 248.441,380.514C243.833,385.147 238.895,387.464 233.629,387.464C225.605,387.464 218.96,384.307 213.694,377.992C208.715,372.087 206.226,365.034 206.226,356.833C206.226,354.645 206.363,352.556 206.637,350.565L228.14,350.565C227.52,352.084 227.21,353.784 227.21,355.664C227.21,358.986 228.362,361.835 230.666,364.214C232.97,366.592 235.768,367.781 239.06,367.781C242.557,367.781 245.417,366.643 247.639,364.368C249.861,362.092 250.972,359.191 250.972,355.664C250.972,353.789 250.653,352.09 250.017,350.565L270.918,350.565Z" style="fill:rgb(255,108,0);"/></g><g transform="matrix(4.166667,0,0,4.166667,-61.53347,-86.643572)"><path d="M404.041,350.196C404.085,350.882 404.106,351.578 404.106,352.281C404.106,356.423 402.769,358.781 400.095,359.355C399.642,359.437 395.383,359.888 387.319,360.708C382.464,361.241 375.222,361.877 365.594,362.615C366.17,365.28 367.919,367.31 370.84,368.704C373.226,369.852 375.942,370.426 378.987,370.426C382.649,370.426 386.331,369.442 390.035,367.474L394.725,364.521C395.589,364.931 397.04,367.023 399.076,370.795C401.113,374.568 402.131,376.967 402.131,377.992C402.131,378.279 401.823,378.751 401.206,379.407C396.186,384.778 388.389,387.464 377.814,387.464C368.022,387.464 360.122,384.614 354.114,378.915C347.942,373.133 344.856,365.403 344.856,355.726C344.856,353.812 344.97,351.969 345.197,350.196L364.74,350.196C364.997,350.684 365.508,350.928 366.273,350.928C368.463,350.928 371.525,350.684 375.461,350.196L404.041,350.196Z" style="fill:rgb(255,108,0);"/></g><g transform="matrix(4.166667,0,0,4.166667,-61.53347,-92.535239)"><path d="M584.973,351.61C584.922,353.956 584.897,356.374 584.897,358.862C584.897,361.855 584.959,366.315 585.082,372.24C585.206,378.165 585.267,382.604 585.267,385.557C585.267,386.418 584.753,386.931 583.724,387.095C582.325,387.341 579.178,387.464 574.281,387.464C569.344,387.464 566.176,387.341 564.777,387.095C563.872,386.931 563.316,386.664 563.11,386.295C563.028,386.131 562.987,385.516 562.987,384.45C562.987,381.62 563.049,377.366 563.172,371.687C563.296,366.007 563.357,361.732 563.357,358.862C563.357,356.332 563.336,353.915 563.293,351.61L584.973,351.61Z" style="fill:rgb(255,108,0);"/></g><g transform="matrix(4.166667,0,0,4.166667,-61.53347,-92.022739)"><path d="M557.328,351.487L557.231,384.819C557.231,386.254 556.655,387.054 555.503,387.218C554.186,387.382 551.183,387.464 546.492,387.464C541.966,387.464 538.818,387.3 537.049,386.972C535.691,386.726 535.012,385.844 535.012,384.327C535.012,380.8 535.074,375.49 535.197,368.396C535.321,361.302 535.383,355.991 535.383,352.465C535.383,352.127 535.37,351.801 535.346,351.487L557.328,351.487Z" style="fill:rgb(255,108,0);"/></g><g transform="matrix(4.166667,0,0,4.166667,-61.53347,-92.535239)"><path d="M436.459,351.61C435.846,351.841 435.344,352.126 434.952,352.465C433.717,353.531 433.1,355.684 433.1,358.923C433.1,360.687 433.131,363.362 433.193,366.95C433.254,370.538 433.285,373.214 433.285,374.977C433.285,376.166 433.367,377.94 433.532,380.298C433.697,382.656 433.779,384.409 433.779,385.557C433.779,386.541 433.1,387.095 431.742,387.218C429.767,387.382 426.743,387.464 422.67,387.464C418.761,387.464 415.634,387.341 413.288,387.095C411.931,386.931 411.252,386.254 411.252,385.065C411.252,381.784 411.272,376.874 411.313,370.333C411.354,363.793 411.375,358.882 411.375,355.602C411.375,354.237 411.357,352.907 411.322,351.61L436.459,351.61Z" style="fill:rgb(255,108,0);"/></g><g transform="matrix(4.166667,0,0,4.166667,-61.53347,-103.356073)"><path d="M288.875,390.132C293.403,388.917 295.667,386.671 295.667,383.395C295.667,382.944 292.869,378.864 287.273,371.155C281.471,363.24 278.283,358.238 277.707,356.146C277.529,355.504 277.399,353.968 277.317,351.539L299.73,351.539L299.74,351.656C299.864,353.091 301.098,355.757 303.443,359.652C305.912,363.712 307.702,365.742 308.813,365.742C309.759,365.742 311.364,363.732 313.627,359.714C315.725,355.9 316.857,353.337 317.021,352.025C317.04,351.864 317.058,351.702 317.075,351.539L340.035,351.539C339.915,354.637 339.712,356.685 339.425,357.684C338.808,359.734 334.303,367.157 325.909,379.95C324.836,381.588 322.383,384.982 318.55,390.132L288.875,390.132Z" style="fill:rgb(255,108,0);"/></g><g transform="matrix(4.166667,0,0,4.166667,-61.53347,-89.718572)"><path d="M169.481,350.934L169.473,353.142C169.473,358.391 169.493,362.225 169.535,364.644L169.658,366.121C169.699,366.613 170.008,366.92 170.584,367.043L172.189,367.043C175.892,367.043 181.436,366.848 188.822,366.459C196.207,366.069 201.752,365.875 205.455,365.875C206.566,365.875 207.121,366.346 207.121,367.289C207.121,374.301 206.607,380.35 205.578,385.434C205.373,386.501 204.941,387.136 204.282,387.341C204.076,387.423 203.233,387.464 201.752,387.464C198.213,387.464 193.605,387.382 187.927,387.218C180.521,387.054 175.912,386.952 174.102,386.911L155.648,386.665C153.796,386.706 151.142,386.624 147.686,386.419C146.493,386.214 145.896,385.578 145.896,384.512C145.896,380.042 145.968,373.348 146.112,364.429C146.198,359.152 146.258,354.654 146.292,350.934L169.481,350.934Z" style="fill:rgb(255,108,0);"/></g><g transform="matrix(4.166667,0,0,4.166667,-61.53347,-92.535239)"><path d="M618.764,351.61C618.851,354.273 618.938,357.531 619.024,361.384C619.065,363.721 619.25,367.781 619.58,373.563C619.868,378.77 620.012,382.83 620.012,385.741C620.012,386.602 619.436,387.095 618.283,387.218C616.885,387.382 613.387,387.464 607.791,387.464C603.142,387.464 600.118,387.341 598.719,387.095C597.32,386.849 596.62,386.008 596.62,384.573L596.62,351.61L618.764,351.61Z" style="fill:rgb(255,108,0);"/></g><g transform="matrix(4.166667,0,0,4.166667,-61.53347,-615.006114)"><path d="M562.678,441.507C560.334,439.554 559.162,436.939 559.162,433.663C559.162,430.465 560.438,427.84 562.989,425.79C565.334,423.904 568.153,422.96 571.444,422.96C574.654,422.96 577.431,423.924 579.776,425.851C582.286,427.902 583.541,430.506 583.541,433.663C583.541,437.11 582.6,439.725 580.717,441.507L562.678,441.507Z" style="fill:rgb(255,108,0);"/></g><g transform="matrix(4.166667,0,0,4.166667,-61.53347,-591.056112)"><path d="M636.124,436.203C635.981,431.605 635.909,429.422 635.909,429.651C635.909,424.895 636.361,422.516 637.267,422.516C638.378,422.516 639.962,422.762 642.019,423.254C644.364,423.787 645.99,424.095 646.895,424.177C648.993,424.464 652.161,424.854 656.399,425.346C657.428,425.428 657.942,425.776 657.942,426.391C657.942,428.032 657.809,430.512 657.541,433.834C657.473,434.676 657.414,435.466 657.364,436.203L636.124,436.203Z" style="fill:rgb(255,108,0);"/></g><g transform="matrix(4.166667,0,0,4.166667,-61.53347,-628.985282)"><path d="M447.806,445.306C448.841,439.544 452.203,434.633 457.892,430.574C463.57,426.473 470.545,423.808 478.815,422.577C479.267,422.536 479.617,422.516 479.864,422.516C480.481,422.516 480.975,423.008 481.345,423.992C482.415,426.986 484.904,432.398 488.813,440.23C488.937,440.477 488.998,440.682 488.998,440.846C488.998,441.543 488.628,441.891 487.887,441.891C487.558,441.891 487.003,441.83 486.221,441.707C485.439,441.584 484.843,441.522 484.431,441.522C481.469,441.522 478.877,442.199 476.655,443.552C475.767,444.069 475.027,444.654 474.434,445.306L447.806,445.306Z" style="fill:rgb(255,108,0);"/></g><g transform="matrix(4.166667,0,0,4.166667,-61.53347,-624.114448)"><path d="M493.36,444.137C493.261,441.543 493.177,438.949 493.107,436.355C492.902,432.788 492.531,429.733 491.996,427.19C491.873,426.657 491.811,426.268 491.811,426.022C491.811,425.406 492.12,424.996 492.737,424.791C494.013,424.422 495.885,424.197 498.353,424.115C501.645,423.992 503.558,423.889 504.093,423.807L515.264,422.516C515.923,422.516 516.252,422.946 516.252,423.807C516.252,425.119 516.17,426.903 516.005,429.159C515.84,431.783 515.758,433.567 515.758,434.51C515.665,437.994 515.59,441.203 515.532,444.137L493.36,444.137Z" style="fill:rgb(255,108,0);"/></g><g transform="matrix(4.166667,0,0,4.166667,-61.53347,-634.881116)"><path d="M592.368,446.721C592.458,440.031 593.835,435.141 596.499,432.05C601.971,425.694 610.818,422.516 623.038,422.516C623.861,422.516 624.355,422.762 624.519,423.254C624.848,425.1 625.321,427.826 625.939,431.435C625.98,431.763 626.247,432.911 626.741,434.879C627.111,436.397 627.296,437.565 627.296,438.386C627.296,439.37 625.836,440.005 622.914,440.292C619.54,440.661 617.463,441.276 616.681,442.138C615.81,443.084 615.219,444.612 614.906,446.721L592.368,446.721Z" style="fill:rgb(255,108,0);"/></g><g transform="matrix(4.166667,0,0,4.166667,-61.53347,-835.735299)"><path d="M170.757,470.516C170.529,470.559 170.535,470.696 170.682,470.816C170.395,471.246 167.18,476.077 167.091,476.193C166.957,476.37 166.916,476.339 165.474,476.337C165.091,476.337 165.136,476.192 163.567,473.863C161.64,471.002 161.62,471.009 161.517,470.728C161.504,470.607 161.514,470.586 161.395,470.554C161.219,470.412 159.724,468.079 158.783,466.698C158.642,466.491 157.058,464.166 157.057,464.092C157.051,463.315 156.986,454.419 157.095,454.369C157.236,454.304 159.394,454.437 159.422,454.292C159.473,454.033 158.12,453.778 158.191,453.619C158.236,453.518 159.424,452.84 159.425,452.58C159.429,451.461 159.432,451.429 159.366,451.4C158.933,451.203 158.066,450.956 158.225,450.834C159.373,449.949 159.424,449.966 159.425,449.84C159.432,448.704 159.428,448.675 159.337,448.634C158.238,448.144 158.12,448.172 158.191,448.101C158.268,448.025 158.287,448.052 159.278,447.298C159.468,447.154 159.427,447.115 159.424,446.074C159.424,446.023 159.45,445.924 159.327,445.873C158.279,445.434 158.071,445.442 158.232,445.321C159.121,444.652 159.42,444.526 159.424,444.234C159.444,442.808 159.206,441.752 160.284,441.251C160.616,441.097 160.632,441.115 167.493,441.115C171.694,441.115 171.742,441.072 172.161,441.384C173.094,442.079 172.599,442.882 172.911,443.017C173.84,443.42 174.183,443.406 173.905,443.609C172.792,444.423 172.792,444.458 172.791,444.576C172.785,445.665 172.771,445.715 172.942,445.785C173.994,446.216 174.087,446.222 174.018,446.286C173.948,446.351 173.939,446.339 173.062,446.998C172.985,447.056 172.795,447.157 172.792,447.273C172.762,448.467 172.806,448.485 172.9,448.523C173.917,448.937 174.126,448.961 173.948,449.087C172.798,449.906 172.792,449.934 172.792,450.055C172.788,451.201 172.784,451.225 172.858,451.258C173.84,451.685 174.177,451.672 173.906,451.871C172.815,452.673 172.793,452.678 172.792,452.794C172.782,454.225 172.726,454.251 172.818,454.334C172.909,454.416 175.127,454.277 175.152,454.415C175.156,454.439 175.155,454.436 175.155,463.408C175.155,463.992 175.201,464.118 175.055,464.268C174.956,464.369 170.991,470.411 170.834,470.544C170.808,470.535 170.783,470.525 170.757,470.516Z" style="fill:rgb(2,2,2);"/></g><g transform="matrix(4.166667,0,0,4.166667,-61.53347,-741.285291)"><path d="M167.151,442.594C168.495,442.367 169.103,442.084 170.035,441.702C170.256,441.612 170.75,442.035 171.661,442.178C173.41,442.451 174.36,441.695 174.103,442.065C173.745,442.58 166.822,452.975 166.758,453.063C166.702,453.14 166.666,453.191 165.562,453.135C165.444,453.129 165.469,453.077 164.381,451.452C162.152,448.124 158.162,442.127 158.118,442.073C157.921,441.834 158.353,442.031 158.435,442.052C160.811,442.662 161.874,441.583 162.124,441.683C164.112,442.476 165.022,442.83 167.151,442.594Z" style="fill:rgb(254,254,254);"/></g><g transform="matrix(4.166667,0,0,4.166667,-61.53347,-825.256131)"><path d="M162.315,456.656C162.328,454.793 162.301,452.475 162.33,452.413C162.365,452.338 169.847,452.386 169.849,452.387C169.898,452.418 169.891,452.435 169.891,456.27C169.891,461.297 169.902,461.333 169.815,461.371C167.058,462.589 165.126,462.58 162.382,461.364C162.306,461.33 162.315,461.298 162.315,456.656Z" style="fill:rgb(254,254,254);"/></g><g transform="matrix(4.166667,0,0,4.166667,-61.53347,-826.747798)"><path d="M161.136,452.73C161.254,452.731 161.264,452.751 161.526,452.725C161.763,452.74 161.787,452.747 161.789,452.818C161.79,452.844 161.791,461.572 161.789,461.637C161.785,461.778 160.216,462.64 158.214,461.941C157.775,461.788 157.588,461.888 157.587,461.422C157.585,460.737 157.565,454.597 157.587,452.862C157.589,452.645 157.824,452.766 161.136,452.73Z" style="fill:rgb(254,254,254);"/></g><g transform="matrix(4.166667,0,0,4.166667,-61.53347,-827.076965)"><path d="M170.584,452.811C170.699,452.812 170.813,452.813 170.928,452.814C170.957,452.812 170.987,452.809 171.016,452.807C172.915,452.839 174.533,452.779 174.595,452.838C174.678,452.917 174.627,460.926 174.623,461.629C174.622,461.811 174.453,461.895 173.59,462.141C172.032,462.585 170.439,461.918 170.429,461.714C170.425,461.615 170.428,453.918 170.428,453.241C170.428,452.966 170.308,452.848 170.584,452.811Z" style="fill:rgb(254,254,254);"/></g><g transform="matrix(4.166667,0,0,4.166667,-61.53347,-967.922809)"><path d="M159.951,474.589C159.952,474.559 159.837,473.8 160.489,473.469C160.699,473.362 160.713,473.374 169.897,473.374C171.314,473.374 172.335,473.164 172.254,474.631C172.248,474.739 172.15,474.693 169.036,475.041C168.316,475.122 161.442,475.891 160.021,475.995C159.908,476.003 159.951,475.926 159.951,474.589Z" style="fill:rgb(254,254,254);"/></g><g transform="matrix(4.166667,0,0,4.166667,-61.53347,-897.243637)"><path d="M166.032,465.501C166.055,465.502 166.051,465.495 166.075,465.495C166.085,465.495 166.084,465.496 166.204,465.502L166.249,465.49L166.292,465.485C167.382,465.387 172.071,464.871 172.173,464.868C172.283,464.865 172.259,465.07 172.257,465.843C172.256,466.001 172.241,466.022 172.086,466.039C161.141,467.187 161.144,467.208 160.192,467.303C159.838,467.339 159.951,467.121 159.951,466.999C159.95,466.512 159.944,466.215 159.974,466.183C160.027,466.127 163.446,465.814 165.855,465.532C165.914,465.522 165.973,465.512 166.032,465.501Z" style="fill:rgb(253,253,253);"/></g><g transform="matrix(4.166667,0,0,4.166667,-61.53347,-943.385307)"><path d="M159.951,472.21C159.951,472.17 159.951,471.736 159.989,471.716C160.034,471.691 163.259,471.359 163.544,471.329C168.542,470.813 172.168,470.4 172.212,470.424C172.287,470.463 172.275,470.486 172.255,471.482C172.252,471.63 172.171,471.606 170.411,471.768C170.057,471.801 160.221,472.849 160.064,472.863C159.895,472.878 159.952,472.438 159.951,472.21Z" style="fill:rgb(253,253,253);"/></g><g transform="matrix(4.166667,0,0,4.166667,-61.53347,-920.922805)"><path d="M159.951,469.729C159.952,469.299 159.766,469.109 160.193,469.059C160.856,468.983 164.597,468.554 168.479,468.179C172.056,467.834 172.254,467.63 172.257,467.931C172.265,468.926 172.231,468.931 172.208,468.941C172.145,468.971 169.963,469.188 169.768,469.207C168.01,469.382 160.026,470.257 159.985,470.229C159.951,470.205 159.951,469.769 159.951,469.729Z" style="fill:rgb(253,253,253);"/></g><g transform="matrix(4.166667,0,0,4.166667,-61.53347,-878.114469)"><path d="M170.837,464.526C170.739,464.54 162.179,464.514 161.561,464.537C161.477,464.531 161.414,464.534 161.401,464.535C161.096,464.513 159.988,464.582 159.952,464.46C159.9,464.281 160.043,464.324 162.255,464.09C163.893,463.917 172.132,463.043 172.174,463.039C172.284,463.031 172.266,463.102 172.256,464.42C172.255,464.551 172.179,464.514 171.009,464.537C170.921,464.529 170.925,464.535 170.837,464.526Z" style="fill:rgb(251,251,251);"/></g><g transform="matrix(4.166667,0,0,4.166667,-61.53347,-938.95614)"><path d="M170.991,470.928C170.997,470.976 171.066,471.542 170.928,471.531C170.735,471.515 170.513,471.56 170.581,471.274C170.616,471.129 170.985,470.967 170.798,470.939C170.781,470.937 170.539,471.137 170.58,470.932C170.604,470.808 170.885,470.655 170.991,470.928Z" style="fill:rgb(124,124,124);"/></g><g transform="matrix(4.166667,0,0,4.166667,-61.53347,80.197566)"><rect x="127.742" y="345.402" width="566.052" height="6.814" style="fill:white;"/></g><g transform="matrix(-0.381821,-4.149134,-4.149134,0.381821,3553.052506,3377.28463)"><path d="M476.464,348.173C476.461,348.232 476.456,348.291 476.451,348.351C476.441,348.682 476.445,348.951 476.464,349.155C476.473,349.251 476.513,349.357 476.584,349.471L476.464,348.173Z" style="fill:rgb(0,68,255);"/></g><g transform="matrix(5.505274,0,0,5.830038,351.759981,851.049662)"><path d="M164.695,117.09C163.536,118.668 162.148,120.54 160.53,122.705C155.745,129.085 153.027,132.454 152.376,132.812C151.595,133.301 146.598,133.545 137.386,133.545C135.986,133.545 135.042,133.382 134.554,133.056C134.131,131.722 133.594,130.143 132.943,128.32C132.422,127.181 131.901,126.025 131.38,124.853C130.631,123.161 130.257,122.038 130.257,121.484C130.257,120.866 130.534,120.556 131.087,120.556C137.853,120.556 142.09,119.401 143.797,117.09L164.695,117.09Z" style="fill:white;"/></g></g></g></g></svg>