<?xml version="1.0" encoding="UTF-8" standalone="no"?>
<!DOCTYPE svg PUBLIC "-//W3C//DTD SVG 1.1//EN" "http://www.w3.org/Graphics/SVG/1.1/DTD/svg11.dtd">
<svg width="100%" height="100%" viewBox="0 0 467 89" version="1.1" xmlns="http://www.w3.org/2000/svg" xmlns:xlink="http://www.w3.org/1999/xlink" xml:space="preserve" xmlns:serif="http://www.serif.com/" style="fill-rule:evenodd;clip-rule:evenodd;stroke-linejoin:round;stroke-miterlimit:2;">
    <g transform="matrix(1.001675,0,0,1.001675,-49.5,-26.609628)">
        <g transform="matrix(0.860042,0,0,0.860042,38.601,2.845012)">
            <g transform="matrix(1,0,0,1,20.532,35.002)">
                <path d="M0,43.394C-0.014,38.652 -0.158,31.783 -0.431,22.789C-0.719,13.296 -0.863,6.171 -0.863,1.414C-0.863,0.512 -0.246,0.061 0.989,0.061C2.223,0.061 4.064,0.123 6.513,0.246C8.961,0.369 10.781,0.43 11.975,0.43C13.332,0.43 15.349,0.358 18.023,0.215C20.698,0.071 22.714,0 24.072,0C24.689,0 24.977,0.389 24.936,1.168L24.874,1.968C24.38,9.677 23.825,21.261 23.207,36.721L23.182,43.394L0,43.394Z" style="fill:rgb(255,108,0);"/>
            </g>
            <g transform="matrix(1,0,0,1,82.641,60.159)">
                <path d="M0,18.237C1.279,14.753 3.114,11.667 5.504,8.98C10.853,2.993 18.177,0 27.476,0C33.936,0 39.038,2.255 42.782,6.766C42.947,6.971 43.091,7.073 43.214,7.073C43.585,7.073 44.006,6.079 44.48,4.09C44.953,2.101 45.519,1.107 46.177,1.107C47.699,1.107 50.6,1.538 54.879,2.399C58.953,3.219 61.874,3.916 63.643,4.49C64.26,4.736 64.569,5.064 64.569,5.474C64.569,5.638 64.507,6.069 64.384,6.766C63.725,10.482 63.231,14.306 62.901,18.237L0,18.237Z" style="fill:rgb(255,108,0);"/>
            </g>
            <g transform="matrix(1,0,0,1,151.418,60.013)">
                <path d="M0,15.716L0,14.947C0,13.471 0.041,11.246 0.123,8.273C0.205,5.3 0.247,3.076 0.247,1.599C0.247,0.533 0.925,0 2.283,0C4.382,0 7.56,0.062 11.819,0.185C16.077,0.308 19.256,0.369 21.354,0.369C22.218,0.369 22.65,1.005 22.65,2.276C22.65,3.424 22.589,5.157 22.465,7.473C22.342,9.79 22.28,11.523 22.28,12.671C22.28,13.76 22.284,14.774 22.291,15.716L0,15.716Z" style="fill:rgb(255,108,0);"/>
            </g>
            <g transform="matrix(1,0,0,1,191.782,60.013)">
                <path d="M0,15.716C0.041,14.444 0.061,13.142 0.061,11.81C0.061,10.703 -0.041,9.021 -0.247,6.766C-0.453,4.511 -0.556,2.809 -0.556,1.661C-0.556,0.882 -0.124,0.492 0.74,0.492C2.839,0.492 5.976,0.41 10.152,0.246C14.329,0.082 17.466,0 19.564,0C20.634,0 21.354,0.533 21.725,1.599C22.301,3.486 22.589,7.853 22.589,14.701C22.589,15.045 22.588,15.383 22.587,15.716L0,15.716Z" style="fill:rgb(255,108,0);"/>
            </g>
            <g transform="matrix(1,0,0,1,221.134,58.744)">
                <path d="M0,19.652C1.379,15.794 3.444,12.359 6.198,9.349C11.876,3.117 19.405,0 28.787,0C36.687,0 43.393,2.871 48.907,8.611C52.093,11.929 54.358,15.609 55.703,19.652L33.709,19.652C33.452,19.305 33.169,18.967 32.86,18.637C31.05,16.71 28.889,15.746 26.38,15.746C23.787,15.746 21.648,16.833 19.961,19.006C19.796,19.218 19.64,19.433 19.493,19.652L0,19.652Z" style="fill:rgb(255,108,0);"/>
            </g>
            <g transform="matrix(1,0,0,1,315.118,68.278)">
                <path d="M0,-0.006C0.02,-0.002 0.04,0 0.06,0C0.036,0 0.016,-0.002 0,-0.006" style="fill:rgb(255,108,0);"/>
            </g>
            <g transform="matrix(1,0,0,1,285.102,60.528)">
                <path d="M0,17.868C-0.432,13.152 -1.158,9.001 -2.176,5.413C-2.258,5.044 -2.299,4.736 -2.299,4.49C-2.299,3.875 -1.991,3.465 -1.374,3.26C0.889,3.014 4.202,2.563 8.563,1.907C15.064,0.635 18.417,0 18.623,0C19.364,0 19.837,1.292 20.043,3.875C20.241,6.361 20.591,7.651 21.094,7.744C21.11,7.748 21.13,7.75 21.154,7.75C21.133,7.75 21.114,7.748 21.094,7.744C20.721,7.659 22.428,6.585 26.215,4.521C30.165,2.368 33.971,1.292 37.633,1.292C39.937,1.292 41.089,1.784 41.089,2.768C41.089,3.957 40.965,5.638 40.718,7.812C40.472,10.149 40.328,11.83 40.286,12.855C40.286,14.044 40.307,15.623 40.348,17.591C40.351,17.685 40.354,17.777 40.357,17.868L0,17.868Z" style="fill:rgb(255,108,0);"/>
            </g>
            <g transform="matrix(1,0,0,1,351.599,78.396)">
                <path d="M0,-23.249C-1.194,-21.935 -1.791,-20.346 -1.791,-18.483C-1.791,-15.982 -0.31,-12.906 2.653,-9.257C6.359,-4.603 8.813,-1.518 10.015,0L-18.413,0C-20.985,-2.983 -22.419,-4.695 -22.713,-5.136C-25.552,-9.4 -26.972,-14.116 -26.972,-19.283C-26.972,-20.647 -26.857,-21.969 -26.627,-23.249L0,-23.249Z" style="fill:rgb(255,108,0);"/>
            </g>
            <g transform="matrix(1,0,0,1,392.697,78.396)">
                <path d="M0,-23.249C-0.096,-18.38 -0.144,-14.27 -0.144,-10.918C-0.144,-10.097 0.062,-9.687 0.473,-9.687C0.556,-9.687 1.605,-10.405 3.621,-11.84C6.007,-13.522 8.291,-14.854 10.472,-15.838C13.722,-17.274 16.87,-17.991 19.915,-17.991C25.181,-17.991 29.584,-16.617 33.122,-13.87C36.949,-10.918 38.862,-6.879 38.862,-1.753L38.857,0L-21.723,0C-21.783,-8.401 -21.914,-15.669 -22.116,-21.805C-22.135,-22.286 -22.154,-22.768 -22.172,-23.249L0,-23.249Z" style="fill:rgb(255,108,0);"/>
            </g>
            <g transform="matrix(1,0,0,1,437.273,62.681)">
                <path d="M0,15.715C-0.225,10.628 -0.581,6.23 -1.069,2.522C-1.151,1.865 -1.192,1.435 -1.192,1.23C-1.192,0.41 -0.637,0 0.474,0C1.626,0 3.385,0.123 5.751,0.369C8.117,0.615 9.897,0.738 11.09,0.738C12.283,0.738 14.073,0.635 16.459,0.43C18.846,0.225 20.636,0.123 21.829,0.123C22.816,0.123 23.31,0.533 23.31,1.353C23.31,1.517 23.269,1.906 23.187,2.522C22.726,6.59 22.383,10.988 22.156,15.715L0,15.715Z" style="fill:rgb(255,108,0);"/>
            </g>
            <g transform="matrix(-0.00857,-0.999963,-0.999963,0.00857,447.357,47.1246)">
                <path d="M-7.667,-10.461C-9.556,-8.431 -10.482,-5.332 -10.447,-1.164C-10.417,2.293 -9.491,5.144 -7.667,7.392C-7.617,7.454 -7.565,7.517 -7.513,7.577L-7.667,-10.461Z" style="fill:rgb(255,108,0);"/>
            </g>
            <g transform="matrix(1,0,0,1,492.072,78.396)">
                <path d="M0,-23.249C-0.175,-22.068 -0.263,-20.705 -0.263,-19.16C-0.263,-17.807 -0.16,-16.535 0.046,-15.346C1.198,-15.346 2.988,-15.387 5.416,-15.469C7.843,-15.551 9.674,-15.592 10.908,-15.592C12.143,-15.592 12.76,-15.141 12.76,-14.239C12.76,-12.312 12.781,-9.411 12.822,-5.536C12.845,-3.392 12.861,-1.547 12.871,0L-28.574,0C-28.75,-3.155 -28.838,-7.081 -28.838,-11.779C-28.838,-13.296 -28.057,-14.219 -26.493,-14.547C-25.094,-14.67 -23.675,-14.772 -22.234,-14.854C-22.44,-18.135 -22.543,-20.698 -22.543,-22.543C-22.543,-22.78 -22.541,-23.016 -22.538,-23.249L0,-23.249Z" style="fill:rgb(255,108,0);"/>
            </g>
            <g transform="matrix(1,0,0,1,534.529,78.396)">
                <path d="M0,-23.249C-0.149,-21.081 -0.224,-19.369 -0.224,-18.114C-0.224,-16.105 0.373,-15.1 1.566,-15.1C3.006,-15.1 5.187,-15.162 8.108,-15.285C11.03,-15.408 13.231,-15.469 14.712,-15.469C15.617,-15.469 16.07,-15.162 16.07,-14.547C16.07,-13.604 15.967,-12.189 15.762,-10.303C15.556,-8.416 15.453,-7.002 15.453,-6.058C15.453,-5.074 15.473,-3.639 15.515,-1.753C15.528,-1.117 15.54,-0.533 15.549,0L-27.752,0C-27.728,-0.411 -27.696,-0.873 -27.658,-1.384C-27.555,-2.737 -27.503,-3.742 -27.503,-4.398C-27.503,-5.259 -27.555,-6.571 -27.658,-8.334C-27.76,-10.097 -27.812,-11.41 -27.812,-12.271C-27.812,-13.091 -26.495,-13.542 -23.862,-13.624C-22.381,-13.665 -21.578,-14.075 -21.455,-14.854C-21.208,-16.412 -21.126,-18.873 -21.208,-22.235C-21.219,-22.585 -21.229,-22.923 -21.24,-23.249L0,-23.249Z" style="fill:rgb(255,108,0);"/>
            </g>
            <g transform="matrix(1,0,0,1,474.232,79.73)">
                <path d="M0,7.357L0,6.428C0,5.239 -0.823,4.644 -2.469,4.644C-2.757,4.644 -3.22,4.664 -3.858,4.706C-4.496,4.747 -4.958,4.767 -5.246,4.767C-6.399,4.767 -6.995,4.439 -7.036,3.783C-7.151,2.677 -7.248,1.417 -7.327,0L34.118,0C34.126,1.25 34.13,2.306 34.13,3.168C34.13,4.152 33.595,4.644 32.525,4.644C28.082,4.644 24.584,4.521 22.033,4.275C22.07,5.194 22.107,6.221 22.144,7.357L0,7.357Z" style="fill:rgb(255,108,0);"/>
            </g>
            <g transform="matrix(0.314726,0.949183,0.949183,-0.314726,159.081,71.3101)">
                <path d="M11.136,-8.067C9.308,-7.529 6.97,-6.789 4.12,-5.85L11.136,15.309C14.403,14.252 16.755,13.553 18.19,13.207L11.136,-8.067Z" style="fill:rgb(255,108,0);"/>
            </g>
            <g transform="matrix(0.303597,0.952801,0.952801,-0.303597,199.222,70.8577)">
                <path d="M11.544,-8.438C9.404,-7.493 7.119,-6.589 4.687,-5.726L11.544,15.795C14.3,14.908 16.624,14.123 18.515,13.438L11.544,-8.438Z" style="fill:rgb(255,108,0);"/>
            </g>
            <g transform="matrix(1,0,0,1,517.213,79.73)">
                <path d="M0,7.357C0.006,6.847 0.008,6.374 0.008,5.936C0.008,4.131 -1.041,3.229 -3.139,3.229L-3.942,3.229C-4.312,3.27 -4.579,3.291 -4.744,3.291C-6.308,3.291 -7.089,2.737 -7.089,1.63C-7.089,1.222 -7.069,0.678 -7.03,0L36.272,0C36.29,1.049 36.299,1.9 36.299,2.553C36.299,3.414 35.702,3.844 34.509,3.844C33.686,3.844 32.308,3.814 30.374,3.752C28.44,3.691 27.062,3.66 26.239,3.66L21.61,3.66C20.993,3.66 20.684,4.562 20.684,6.366L20.684,7.357L0,7.357Z" style="fill:rgb(255,108,0);"/>
            </g>
            <g transform="matrix(1,0,0,1,342.54,79.73)">
                <path d="M0,7.357C-0.624,6.323 -1.407,5.255 -2.348,4.152C-3.727,2.568 -4.927,1.184 -5.947,0L22.481,0C22.973,0.622 23.255,0.981 23.327,1.076C24.686,3.174 25.729,5.268 26.455,7.357L0,7.357Z" style="fill:rgb(255,108,0);"/>
            </g>
            <g transform="matrix(0.318043,0.948076,0.948076,-0.318043,444.818,74.2894)">
                <path d="M10.888,-7.78C8.413,-7.001 6.064,-6.293 3.842,-5.655L10.888,15.352C13.099,14.491 15.397,13.631 17.783,12.773L10.888,-7.78Z" style="fill:rgb(255,108,0);"/>
            </g>
            <g transform="matrix(1,0,0,1,84.249,79.73)">
                <path d="M0,7.357C0.361,4.734 0.961,2.281 1.798,0L64.7,0C64.498,2.412 64.358,4.864 64.281,7.357L43.379,7.357C42.832,6.046 42.05,4.865 41.032,3.814C38.831,1.538 35.961,0.4 32.422,0.4C28.884,0.4 26.024,1.528 23.844,3.783C22.826,4.836 22.045,6.027 21.502,7.357L0,7.357Z" style="fill:rgb(255,108,0);"/>
            </g>
            <g transform="matrix(1,0,0,1,374.415,79.73)">
                <path d="M0,7.357C-0.006,4.815 -0.017,2.363 -0.034,0L60.546,0L60.524,7.357L38.543,7.357C38.222,3.211 35.786,1.138 31.234,1.138C29.589,1.138 27.655,1.794 25.433,3.106C23.13,4.468 21.92,5.885 21.801,7.357L0,7.357Z" style="fill:rgb(255,108,0);"/>
            </g>
            <g transform="matrix(1,0,0,1,288.933,79.73)">
                <path d="M0,7.357C-0.071,4.768 -0.212,2.316 -0.424,0L39.933,0C40.009,2.265 40.047,3.772 40.047,4.521C40.047,6.12 39.163,6.92 37.393,6.92C36.611,6.92 35.47,6.869 33.968,6.766C32.466,6.664 31.345,6.612 30.604,6.612C28.274,6.612 26.452,6.86 25.137,7.357L0,7.357Z" style="fill:rgb(255,108,0);"/>
            </g>
            <g transform="matrix(1,0,0,1,253.072,79.73)">
                <path d="M0,7.357C1.536,7.166 3.205,6.939 5.008,6.674C6.365,6.469 7.044,6.141 7.044,5.69C7.044,3.582 6.422,1.685 5.177,0L27.172,0C27.948,2.332 28.417,4.784 28.58,7.357L0,7.357Z" style="fill:rgb(255,108,0);"/>
            </g>
            <g transform="matrix(1,0,0,1,222.808,79.73)">
                <path d="M0,7.357C0.333,4.754 0.911,2.301 1.733,0L21.226,0C19.974,1.864 19.348,4.006 19.348,6.428C19.348,6.8 19.413,7.11 19.543,7.357L0,7.357Z" style="fill:rgb(255,108,0);"/>
            </g>
            <g transform="matrix(1,0,0,1,23.904,79.73)">
                <path d="M0,7.357C0.024,4.79 0.036,2.594 0.036,0.769L0.035,0L23.217,0L23.189,7.357L0,7.357Z" style="fill:rgb(255,108,0);"/>
            </g>
            <g transform="matrix(1,0,0,1,242.351,87.819)">
                <path d="M0,-0.732L10.721,-0.732C6.786,-0.244 3.723,0 1.533,0C0.768,0 0.258,-0.244 0,-0.732" style="fill:rgb(255,108,0);"/>
            </g>
            <g transform="matrix(1,0,0,1,532.544,125.457)">
                <path d="M0,-36.592L0,-33.215C0.041,-31.247 0.061,-29.791 0.061,-28.848C0.061,-25.404 0.452,-23.025 1.234,-21.713C2.345,-19.95 4.526,-19.068 7.776,-19.068C8.805,-19.068 10.276,-19.304 12.189,-19.775C14.102,-20.247 15.45,-20.483 16.232,-20.483C17.096,-20.483 17.528,-20.032 17.528,-19.13C17.528,-17.899 17.374,-16.034 17.065,-13.532C16.756,-11.031 16.602,-9.196 16.602,-8.027C16.602,-6.859 16.479,-6.11 16.232,-5.782C15.985,-5.454 15.306,-4.983 14.195,-4.367C8.887,-1.456 3.003,0 -3.457,0C-15.348,0 -21.293,-4.531 -21.293,-13.594C-21.293,-16.3 -21.19,-20.37 -20.985,-25.803C-20.812,-30.357 -20.712,-33.954 -20.684,-36.592L0,-36.592Z" style="fill:rgb(255,108,0);"/>
            </g>
            <g transform="matrix(1,0,0,1,330.686,88.865)">
                <path d="M0,38.593C-1.061,38.064 -3.051,35.214 -5.969,30.041C-9.22,24.28 -10.845,20.763 -10.845,19.492C-10.845,19.041 -10.536,18.754 -9.919,18.631C-3.953,17.278 -0.003,16.13 1.931,15.187C6.21,13.054 8.35,9.897 8.35,5.714C8.35,3.945 7.733,2.04 6.501,0L32.956,0C33.792,2.403 34.21,4.799 34.21,7.19C34.21,15.515 30.692,22.65 23.656,28.596C17.525,33.81 10.074,37.142 1.304,38.593L0,38.593Z" style="fill:rgb(255,108,0);"/>
            </g>
            <g transform="matrix(1,0,0,1,390.863,124.842)">
                <path d="M0,-35.977C-0.007,-35.897 -0.01,-35.817 -0.01,-35.737L-0.01,-20.544C-0.01,-18.576 0.031,-15.613 0.114,-11.656C0.196,-7.699 0.237,-4.737 0.237,-2.768C0.237,-1.251 -0.401,-0.41 -1.676,-0.246C-2.952,-0.082 -6.531,0 -12.415,0C-15.789,0 -18.217,-0.164 -19.698,-0.492C-21.179,-0.82 -21.92,-1.538 -21.92,-2.645C-21.92,-5.885 -21.899,-10.754 -21.858,-17.254C-21.817,-23.753 -21.797,-28.623 -21.797,-31.862C-21.797,-33.259 -21.798,-34.63 -21.801,-35.977L0,-35.977Z" style="fill:rgb(255,108,0);"/>
            </g>
            <g transform="matrix(1,0,0,1,143.176,125.764)">
                <path d="M0,-36.899C-0.049,-35.338 -0.073,-33.762 -0.073,-32.169C-0.073,-29.012 0.112,-24.316 0.483,-18.083C0.853,-11.85 1.038,-7.176 1.038,-4.059C1.038,-2.419 0.318,-1.537 -1.122,-1.414C-6.224,-1.045 -12.067,-0.861 -18.65,-0.861C-19.432,-0.861 -19.957,-2.04 -20.224,-4.398C-20.491,-6.755 -20.81,-7.955 -21.181,-7.996C-21.51,-7.832 -21.942,-7.483 -22.477,-6.95C-27.085,-2.317 -32.023,0 -37.289,0C-45.313,0 -51.958,-3.157 -57.224,-9.472C-62.203,-15.377 -64.692,-22.43 -64.692,-30.631C-64.692,-32.819 -64.555,-34.908 -64.281,-36.899L-42.778,-36.899C-43.398,-35.38 -43.708,-33.68 -43.708,-31.8C-43.708,-28.478 -42.556,-25.629 -40.252,-23.25C-37.948,-20.872 -35.15,-19.683 -31.858,-19.683C-28.361,-19.683 -25.501,-20.821 -23.279,-23.096C-21.057,-25.372 -19.946,-28.273 -19.946,-31.8C-19.946,-33.675 -20.265,-35.374 -20.901,-36.899L0,-36.899Z" style="fill:rgb(255,108,0);"/>
            </g>
            <g transform="matrix(1,0,0,1,276.299,126.133)">
                <path d="M0,-37.268C0.044,-36.582 0.065,-35.886 0.065,-35.183C0.065,-31.041 -1.272,-28.683 -3.946,-28.109C-4.399,-28.027 -8.658,-27.576 -16.722,-26.756C-21.577,-26.223 -28.819,-25.587 -38.447,-24.849C-37.871,-22.184 -36.122,-20.154 -33.201,-18.76C-30.815,-17.612 -28.099,-17.038 -25.054,-17.038C-21.392,-17.038 -17.71,-18.022 -14.006,-19.99L-9.316,-22.943C-8.452,-22.533 -7.001,-20.441 -4.965,-16.669C-2.928,-12.896 -1.91,-10.497 -1.91,-9.472C-1.91,-9.185 -2.218,-8.713 -2.835,-8.057C-7.855,-2.686 -15.652,0 -26.227,0C-36.019,0 -43.919,-2.85 -49.927,-8.549C-56.099,-14.331 -59.185,-22.061 -59.185,-31.738C-59.185,-33.652 -59.071,-35.495 -58.844,-37.268L-39.301,-37.268C-39.044,-36.78 -38.533,-36.536 -37.768,-36.536C-35.578,-36.536 -32.516,-36.78 -28.58,-37.268L0,-37.268Z" style="fill:rgb(255,108,0);"/>
            </g>
            <g transform="matrix(1,0,0,1,457.231,124.719)">
                <path d="M0,-35.854C-0.051,-33.508 -0.076,-31.09 -0.076,-28.602C-0.076,-25.609 -0.014,-21.149 0.109,-15.224C0.233,-9.299 0.294,-4.86 0.294,-1.907C0.294,-1.046 -0.22,-0.533 -1.249,-0.369C-2.648,-0.123 -5.795,0 -10.692,0C-15.629,0 -18.797,-0.123 -20.196,-0.369C-21.101,-0.533 -21.657,-0.8 -21.863,-1.169C-21.945,-1.333 -21.986,-1.948 -21.986,-3.014C-21.986,-5.844 -21.924,-10.098 -21.801,-15.777C-21.677,-21.457 -21.616,-25.732 -21.616,-28.602C-21.616,-31.132 -21.637,-33.549 -21.68,-35.854L0,-35.854Z" style="fill:rgb(255,108,0);"/>
            </g>
            <g transform="matrix(1,0,0,1,429.586,124.842)">
                <path d="M0,-35.977L-0.097,-2.645C-0.097,-1.21 -0.673,-0.41 -1.825,-0.246C-3.142,-0.082 -6.145,0 -10.836,0C-15.362,0 -18.51,-0.164 -20.279,-0.492C-21.637,-0.738 -22.316,-1.62 -22.316,-3.137C-22.316,-6.664 -22.254,-11.974 -22.131,-19.068C-22.007,-26.162 -21.945,-31.473 -21.945,-34.999C-21.945,-35.337 -21.958,-35.663 -21.982,-35.977L0,-35.977Z" style="fill:rgb(255,108,0);"/>
            </g>
            <g transform="matrix(1,0,0,1,308.717,124.719)">
                <path d="M0,-35.854C-0.613,-35.623 -1.115,-35.338 -1.507,-34.999C-2.742,-33.933 -3.359,-31.78 -3.359,-28.541C-3.359,-26.777 -3.328,-24.102 -3.266,-20.514C-3.205,-16.926 -3.174,-14.25 -3.174,-12.487C-3.174,-11.298 -3.092,-9.524 -2.927,-7.166C-2.762,-4.808 -2.68,-3.055 -2.68,-1.907C-2.68,-0.923 -3.359,-0.369 -4.717,-0.246C-6.692,-0.082 -9.716,0 -13.789,0C-17.698,0 -20.825,-0.123 -23.171,-0.369C-24.528,-0.533 -25.207,-1.21 -25.207,-2.399C-25.207,-5.68 -25.187,-10.59 -25.146,-17.131C-25.105,-23.671 -25.084,-28.582 -25.084,-31.862C-25.084,-33.227 -25.102,-34.557 -25.137,-35.854L0,-35.854Z" style="fill:rgb(255,108,0);"/>
            </g>
            <g transform="matrix(1,0,0,1,161.133,86.197)">
                <path d="M0,38.593C4.528,37.378 9.203,32.538 9.203,29.262C9.203,28.811 2.577,23.825 -3.975,16.976C-10.759,9.885 -10.592,6.699 -11.168,4.607C-11.346,3.965 -11.476,2.429 -11.558,0L10.855,0L10.865,0.117C10.989,1.552 12.223,4.218 14.568,8.113C17.037,12.173 18.827,14.203 19.938,14.203C20.884,14.203 22.489,12.193 24.752,8.175C26.85,4.361 27.982,1.798 28.146,0.486C28.165,0.325 28.183,0.163 28.2,0L51.16,0C51.04,3.098 49.268,6.327 48.981,7.326C48.364,9.376 43.297,15.978 34.903,28.771C33.83,30.409 31.37,33.443 27.537,38.593L0,38.593Z" style="fill:rgb(255,108,0);"/>
            </g>
            <g transform="matrix(1,0,0,1,41.739,125.395)">
                <path d="M0,-36.53L-0.008,-34.322C-0.008,-29.073 0.012,-25.239 0.054,-22.82L0.177,-21.343C0.218,-20.851 0.527,-20.544 1.103,-20.421L2.708,-20.421C6.411,-20.421 11.955,-20.616 19.341,-21.005C26.726,-21.395 32.271,-21.589 35.974,-21.589C37.085,-21.589 37.64,-21.118 37.64,-20.175C37.64,-13.163 37.126,-7.114 36.097,-2.03C35.892,-0.963 35.46,-0.328 34.801,-0.123C34.595,-0.041 33.752,0 32.271,0C28.732,0 24.124,-0.082 18.446,-0.246C11.04,-0.41 6.431,-0.512 4.621,-0.553L-13.833,-0.799C-15.685,-0.758 -18.339,-0.84 -21.795,-1.045C-22.988,-1.25 -23.585,-1.886 -23.585,-2.952C-23.585,-7.422 -23.513,-14.116 -23.369,-23.035C-23.283,-28.312 -23.223,-32.81 -23.189,-36.53L0,-36.53Z" style="fill:rgb(255,108,0);"/>
            </g>
            <g transform="matrix(1,0,0,1,491.022,124.719)">
                <path d="M0,-35.854C0.087,-33.191 0.174,-29.933 0.26,-26.08C0.301,-23.743 0.486,-19.683 0.816,-13.901C1.104,-8.694 1.248,-4.634 1.248,-1.723C1.248,-0.862 0.672,-0.369 -0.481,-0.246C-1.879,-0.082 -5.377,0 -10.973,0C-15.622,0 -18.646,-0.123 -20.045,-0.369C-21.444,-0.615 -22.144,-1.456 -22.144,-2.891L-22.144,-35.854L0,-35.854Z" style="fill:rgb(255,108,0);"/>
            </g>
            <g transform="matrix(1,0,0,1,434.936,34.822)">
                <path d="M0,18.547C-2.344,16.594 -3.516,13.979 -3.516,10.703C-3.516,7.505 -2.24,4.88 0.311,2.83C2.656,0.944 5.475,0 8.766,0C11.976,0 14.753,0.964 17.098,2.891C19.608,4.942 20.863,7.546 20.863,10.703C20.863,14.15 19.922,16.765 18.039,18.547L0,18.547Z" style="fill:rgb(255,108,0);"/>
            </g>
            <g transform="matrix(1,0,0,1,508.382,40.126)">
                <path d="M0,13.687C-0.143,9.089 -0.215,6.906 -0.215,7.135C-0.215,2.379 0.237,0 1.143,0C2.254,0 3.838,0.246 5.895,0.738C8.24,1.271 9.866,1.579 10.771,1.661C12.869,1.948 16.037,2.338 20.275,2.83C21.304,2.912 21.818,3.26 21.818,3.875C21.818,5.516 21.685,7.996 21.417,11.318C21.349,12.16 21.29,12.95 21.24,13.687L0,13.687Z" style="fill:rgb(255,108,0);"/>
            </g>
            <g transform="matrix(1,0,0,1,320.064,31.023)">
                <path d="M0,22.79C1.035,17.028 4.397,12.117 10.086,8.058C15.764,3.957 22.739,1.292 31.009,0.061C31.461,0.02 31.811,0 32.058,0C32.675,0 33.169,0.492 33.539,1.476C34.609,4.47 37.098,9.882 41.007,17.714C41.131,17.961 41.192,18.166 41.192,18.33C41.192,19.027 40.822,19.375 40.081,19.375C39.752,19.375 39.197,19.314 38.415,19.191C37.633,19.068 37.037,19.006 36.625,19.006C33.663,19.006 31.071,19.683 28.849,21.036C27.961,21.553 27.221,22.138 26.628,22.79L0,22.79Z" style="fill:rgb(255,108,0);"/>
            </g>
            <g transform="matrix(1,0,0,1,365.618,32.192)">
                <path d="M0,21.621C-0.099,19.027 -0.183,16.433 -0.253,13.839C-0.458,10.272 -0.829,7.217 -1.364,4.674C-1.487,4.141 -1.549,3.752 -1.549,3.506C-1.549,2.89 -1.24,2.48 -0.623,2.275C0.653,1.906 2.525,1.681 4.993,1.599C8.285,1.476 10.198,1.373 10.733,1.291L21.904,0C22.563,0 22.892,0.43 22.892,1.291C22.892,2.603 22.81,4.387 22.645,6.643C22.48,9.267 22.398,11.051 22.398,11.994C22.305,15.478 22.23,18.687 22.172,21.621L0,21.621Z" style="fill:rgb(255,108,0);"/>
            </g>
            <g transform="matrix(1,0,0,1,464.626,29.608)">
                <path d="M0,24.205C0.09,17.515 1.467,12.625 4.131,9.534C9.603,3.178 18.45,0 30.67,0C31.493,0 31.987,0.246 32.151,0.738C32.48,2.584 32.953,5.31 33.571,8.919C33.612,9.247 33.879,10.395 34.373,12.363C34.743,13.881 34.928,15.049 34.928,15.87C34.928,16.854 33.468,17.489 30.546,17.776C27.172,18.145 25.095,18.76 24.313,19.622C23.442,20.568 22.851,22.096 22.538,24.205L0,24.205Z" style="fill:rgb(255,108,0);"/>
            </g>
            <g transform="matrix(0.955516,0,0,0.994631,13.765202,124.113)">
                <rect x="0" y="0" width="566.052" height="6.814" style="fill:white;"/>
            </g>
            <g transform="matrix(-0.091637,-0.995792,-0.995792,0.091637,348.632,126.858)">
                <path d="M-0.667,-0.698C-0.67,-0.639 -0.675,-0.58 -0.68,-0.52C-0.69,-0.189 -0.686,0.08 -0.667,0.284C-0.658,0.38 -0.618,0.486 -0.547,0.6L-0.667,-0.698Z" style="fill:rgb(0,68,255);"/>
            </g>
        </g>
    </g>
</svg>
